# xmcd
#
# Track frame offsets:
#	150
#	12545
#	24132
#	36950
#	47917
#	56270
#	68312
#	81027
#	98022
#	109927
#	121445
#	130055
#	138410
#	150515
#	166677
#	176417
#	192740
#	205507
#	218195
#	228792
#	247167
#	255385
#	266037
#	277490
#	283397
#	293605
#	303955
#	313277
#	324720
#
# Disc length: 4438 seconds
#
# Revision: 3
# Processed by: cddbd v1.4PL0 Copyright (c) Steve Scherf et al.
# Submitted via: MusicWizard 6.0.0
#
DISCID=a411541d
DTITLE=Johnny Cash - Blue Man
DYEAR=1998
DGENRE=Country
TTITLE0=Folsom Prison Blues
TTITLE1=These Hands
TTITLE2=Peace In The Vally
TTITLE3=Rock Island Line
TTITLE4=The Walls Of A Prison
TTITLE5=I Still Miss Someone
TTITLE6=Ring Of Fire
TTITLE7=Sunday Mornin' Comin' Down
TTITLE8=The Highwayman
TTITLE9=Big River
TTITLE10=I Got Stripes
TTITLE11=Get Rhythm
TTITLE12=Sixteen Tons
TTITLE13=A Boy Named Sue
TTITLE14=Help Me
TTITLE15=City Of New Orleans
TTITLE16=Long Black Veil
TTITLE17=Jackson
TTITLE18=If I Were A Carpenter
TTITLE19=Orange Blossom Special
TTITLE20=I Can't Help It
TTITLE21=You Win Again
TTITLE22=Mean Eyed Cat
TTITLE23=My Treasure
TTITLE24=Hey Porter
TTITLE25=Straight A's In Love
TTITLE26=Two Timin' Woman
TTITLE27=Oh Lonesome Me
TTITLE28=Sugartime
EXTD=(c)1998 Sonotec Germany\nupc 4015910252094
EXTT0=
EXTT1=
EXTT2=
EXTT3=
EXTT4=
EXTT5=
EXTT6=
EXTT7=
EXTT8=
EXTT9=
EXTT10=
EXTT11=
EXTT12=
EXTT13=
EXTT14=
EXTT15=
EXTT16=
EXTT17=
EXTT18=
EXTT19=
EXTT20=
EXTT21=
EXTT22=
EXTT23=
EXTT24=
EXTT25=
EXTT26=
EXTT27=
EXTT28=
PLAYORDER=
